<svg width="80" height="80" viewBox="0 0 80 80" fill="none" xmlns="http://www.w3.org/2000/svg">
<path d="M72.8724 65.6775V65.8178H73.0018C73.0304 65.8178 73.0549 65.811 73.0726 65.8001C73.089 65.7892 73.0985 65.7701 73.0985 65.747C73.0985 65.7238 73.089 65.7061 73.0726 65.6952C73.0549 65.683 73.0304 65.6775 73.0018 65.6775H72.8724ZM73.0032 65.5795C73.0699 65.5795 73.1216 65.5944 73.1584 65.6244C73.1952 65.6544 73.2129 65.6952 73.2129 65.747C73.2129 65.7906 73.1993 65.826 73.1693 65.8546C73.1407 65.8818 73.0998 65.8995 73.0454 65.9063L73.217 66.1038H73.0835L72.9242 65.9077H72.8724V66.1038H72.7608V65.5795H73.0032ZM72.9691 66.2849C73.0304 66.2849 73.0876 66.2726 73.1393 66.2495C73.1925 66.2263 73.2388 66.195 73.2782 66.1555C73.3177 66.116 73.3491 66.0697 73.3722 66.0152C73.394 65.9621 73.4062 65.9049 73.4062 65.8437C73.4062 65.7824 73.394 65.7252 73.3722 65.6721C73.3491 65.619 73.3177 65.5713 73.2782 65.5318C73.2388 65.4923 73.1925 65.461 73.1393 65.4378C73.0876 65.4161 73.0304 65.4052 72.9691 65.4052C72.9078 65.4052 72.8493 65.4161 72.7962 65.4378C72.7417 65.461 72.694 65.4923 72.6545 65.5318C72.615 65.5713 72.5837 65.619 72.5619 65.6721C72.5388 65.7252 72.5279 65.7824 72.5279 65.8437C72.5279 65.9049 72.5388 65.9621 72.5619 66.0152C72.5837 66.0697 72.615 66.116 72.6545 66.1555C72.694 66.195 72.7417 66.2263 72.7962 66.2495C72.8493 66.2726 72.9078 66.2849 72.9691 66.2849ZM72.9691 65.2785C73.0495 65.2785 73.123 65.2935 73.1938 65.3234C73.2633 65.352 73.3232 65.3929 73.3763 65.4446C73.428 65.495 73.4689 65.555 73.4989 65.6244C73.5288 65.6925 73.5438 65.766 73.5438 65.8437C73.5438 65.9213 73.5288 65.9948 73.4989 66.0629C73.4689 66.131 73.428 66.1909 73.3763 66.2427C73.3232 66.2931 73.2633 66.3339 73.1938 66.3639C73.123 66.3938 73.0495 66.4088 72.9691 66.4088C72.8874 66.4088 72.8125 66.3938 72.7417 66.3639C72.6709 66.3339 72.6096 66.2931 72.5578 66.2427C72.5061 66.1909 72.4652 66.131 72.4353 66.0629C72.4053 65.9948 72.3903 65.9213 72.3903 65.8437C72.3903 65.766 72.4053 65.6925 72.4353 65.6244C72.4652 65.555 72.5061 65.495 72.5578 65.4446C72.6096 65.3929 72.6709 65.352 72.7417 65.3234C72.8125 65.2935 72.8874 65.2785 72.9691 65.2785ZM19.9115 63.2589C19.9115 62.2594 20.5665 61.4382 21.6369 61.4382C22.6596 61.4382 23.3501 62.224 23.3501 63.2589C23.3501 64.2939 22.6596 65.0797 21.6369 65.0797C20.5665 65.0797 19.9115 64.2585 19.9115 63.2589ZM24.5158 63.2589V60.4155H23.2793V61.1059C22.8871 60.5939 22.292 60.2725 21.483 60.2725C19.8884 60.2725 18.6382 61.5226 18.6382 63.2589C18.6382 64.9966 19.8884 66.2454 21.483 66.2454C22.292 66.2454 22.8871 65.924 23.2793 65.412V66.1024H24.5158V63.2589ZM66.3017 63.2589C66.3017 62.2594 66.9567 61.4382 68.0271 61.4382C69.0512 61.4382 69.7403 62.224 69.7403 63.2589C69.7403 64.2939 69.0512 65.0797 68.0271 65.0797C66.9567 65.0797 66.3017 64.2585 66.3017 63.2589ZM70.9073 63.2589V58.1317H69.6694V61.1059C69.2772 60.5939 68.6821 60.2725 67.8732 60.2725C66.2785 60.2725 65.0284 61.5226 65.0284 63.2589C65.0284 64.9966 66.2785 66.2454 67.8732 66.2454C68.6821 66.2454 69.2772 65.924 69.6694 65.412V66.1024H70.9073V63.2589ZM39.8648 61.3796C40.6615 61.3796 41.1735 61.8794 41.3042 62.7592H38.3532C38.4853 61.938 38.9837 61.3796 39.8648 61.3796ZM39.8893 60.2725C38.2225 60.2725 37.0567 61.4859 37.0567 63.2589C37.0567 65.0674 38.2701 66.2454 39.9724 66.2454C40.829 66.2454 41.6134 66.0316 42.3038 65.4487L41.6978 64.5322C41.2212 64.9122 40.6138 65.1273 40.0432 65.1273C39.2465 65.1273 38.5207 64.7583 38.3423 63.7342H42.5653C42.5775 63.5803 42.5898 63.4251 42.5898 63.2589C42.5775 61.4859 41.4826 60.2725 39.8893 60.2725ZM54.8202 63.2589C54.8202 62.2594 55.4753 61.4382 56.5457 61.4382C57.5684 61.4382 58.2588 62.224 58.2588 63.2589C58.2588 64.2939 57.5684 65.0797 56.5457 65.0797C55.4753 65.0797 54.8202 64.2585 54.8202 63.2589ZM59.4245 63.2589V60.4155H58.188V61.1059C57.7944 60.5939 57.2007 60.2725 56.3918 60.2725C54.7971 60.2725 53.5469 61.5226 53.5469 63.2589C53.5469 64.9966 54.7971 66.2454 56.3918 66.2454C57.2007 66.2454 57.7944 65.924 58.188 65.412V66.1024H59.4245V63.2589ZM47.8368 63.2589C47.8368 64.9844 49.038 66.2454 50.871 66.2454C51.7276 66.2454 52.2982 66.0547 52.9164 65.5672L52.3227 64.5676C51.8583 64.9013 51.3708 65.0797 50.8342 65.0797C49.8469 65.0674 49.121 64.3538 49.121 63.2589C49.121 62.164 49.8469 61.4505 50.8342 61.4382C51.3708 61.4382 51.8583 61.6166 52.3227 61.9502L52.9164 60.9507C52.2982 60.4631 51.7276 60.2725 50.871 60.2725C49.038 60.2725 47.8368 61.5335 47.8368 63.2589ZM63.7796 60.2725C63.066 60.2725 62.6016 60.6061 62.2802 61.1059V60.4155H61.0546V66.1024H62.2925V62.9144C62.2925 61.9734 62.697 61.4505 63.5059 61.4505C63.7565 61.4505 64.0179 61.4859 64.2794 61.5934L64.6607 60.4277C64.387 60.3201 64.0302 60.2725 63.7796 60.2725ZM30.6317 60.8676C30.0366 60.4754 29.2168 60.2725 28.3125 60.2725C26.8717 60.2725 25.9443 60.9629 25.9443 62.0932C25.9443 63.0206 26.6348 63.5926 27.9067 63.771L28.4909 63.8541C29.1691 63.9494 29.4891 64.1278 29.4891 64.4492C29.4891 64.889 29.037 65.1396 28.1927 65.1396C27.3361 65.1396 26.7178 64.8659 26.3011 64.5445L25.7183 65.5073C26.3965 66.0071 27.253 66.2454 28.1804 66.2454C29.8228 66.2454 30.7747 65.4719 30.7747 64.3892C30.7747 63.3897 30.0257 62.8667 28.7878 62.6883L28.205 62.6039C27.6698 62.5331 27.2408 62.4269 27.2408 62.0456C27.2408 61.6288 27.6452 61.3796 28.3234 61.3796C29.0493 61.3796 29.752 61.6534 30.0965 61.8672L30.6317 60.8676ZM46.5867 60.2725C45.8731 60.2725 45.4087 60.6061 45.0887 61.1059V60.4155H43.8631V66.1024H45.0996V62.9144C45.0996 61.9734 45.5041 61.4505 46.313 61.4505C46.5636 61.4505 46.825 61.4859 47.0865 61.5934L47.4678 60.4277C47.1941 60.3201 46.8373 60.2725 46.5867 60.2725ZM36.034 60.4155H34.0117V58.6901H32.7616V60.4155H31.6081V61.5458H32.7616V64.14C32.7616 65.4596 33.2736 66.2454 34.7362 66.2454C35.2728 66.2454 35.891 66.0793 36.2832 65.8055L35.9264 64.746C35.5574 64.9598 35.1529 65.0674 34.8315 65.0674C34.2133 65.0674 34.0117 64.6861 34.0117 64.1155V61.5458H36.034V60.4155ZM17.5447 66.1024V62.5331C17.5447 61.189 16.6881 60.2847 15.3072 60.2725C14.5814 60.2602 13.8324 60.4863 13.3081 61.2843C12.9159 60.6538 12.2976 60.2725 11.4288 60.2725C10.8214 60.2725 10.2277 60.4509 9.76328 61.1168V60.4155H8.52539V66.1024H9.77417V62.9498C9.77417 61.9625 10.3216 61.4382 11.1673 61.4382C11.9885 61.4382 12.4038 61.9734 12.4038 62.9376V66.1024H13.654V62.9498C13.654 61.9625 14.2246 61.4382 15.0457 61.4382C15.8901 61.4382 16.2945 61.9734 16.2945 62.9376V66.1024H17.5447Z" fill="#231F20"/>
<path d="M73.6355 47.1896V46.3589H73.4189L73.1684 46.9295L72.9191 46.3589H72.7013V47.1896H72.8551V46.5631L73.0894 47.1038H73.2487L73.4829 46.5618V47.1896H73.6355ZM72.2614 47.1896V46.5005H72.5392V46.3602H71.8311V46.5005H72.1089V47.1896H72.2614Z" fill="#F79410"/>
<path d="M49.0132 50.7629H30.2725V17.0825H49.0132V50.7629Z" fill="#FF5F00"/>
<path d="M31.4736 33.9199C31.4736 27.0877 34.6725 21.0018 39.6541 17.0798C36.0112 14.2118 31.4137 12.5 26.4172 12.5C14.5885 12.5 5 22.0899 5 33.9199C5 45.75 14.5885 55.3399 26.4172 55.3399C31.4137 55.3399 36.0112 53.6281 39.6541 50.7601C34.6725 46.8381 31.4736 40.7522 31.4736 33.9199Z" fill="#EB001B"/>
<path d="M74.2892 33.9199C74.2892 45.75 64.7007 55.3399 52.872 55.3399C47.8755 55.3399 43.278 53.6281 39.6338 50.7601C44.6167 46.8381 47.8156 40.7522 47.8156 33.9199C47.8156 27.0877 44.6167 21.0018 39.6338 17.0798C43.278 14.2118 47.8755 12.5 52.872 12.5C64.7007 12.5 74.2892 22.0899 74.2892 33.9199Z" fill="#F79E1B"/>
</svg>
