<svg width="176" height="176" viewBox="0 0 176 176" fill="none" xmlns="http://www.w3.org/2000/svg">
<path fill-rule="evenodd" clip-rule="evenodd" d="M72.3841 27.064C65.9519 27.0687 60.7463 32.2886 60.7511 38.7208C60.7463 45.1529 65.9567 50.3728 72.3889 50.3776H84.0267V38.7255C84.0314 32.2934 78.821 27.0735 72.3841 27.064C72.3889 27.064 72.3889 27.064 72.3841 27.064V27.064ZM72.3841 58.1551H41.3595C34.9273 58.1599 29.7169 63.3798 29.7217 69.8119C29.7122 76.2441 34.9226 81.464 41.3547 81.4735H72.3841C78.8163 81.4688 84.0266 76.2489 84.0219 69.8167C84.0266 63.3798 78.8163 58.1599 72.3841 58.1551V58.1551Z" fill="#36C5F0"/>
<path fill-rule="evenodd" clip-rule="evenodd" d="M146.08 69.8119C146.084 63.3798 140.874 58.1599 134.442 58.1551C128.01 58.1599 122.799 63.3798 122.804 69.8119V81.4735H134.442C140.874 81.4688 146.084 76.2489 146.08 69.8119ZM115.05 69.8119V38.7208C115.055 32.2934 109.849 27.0735 103.417 27.064C96.9849 27.0687 91.7746 32.2886 91.7793 38.7208V69.8119C91.7698 76.2441 96.9802 81.464 103.412 81.4735C109.845 81.4688 115.055 76.2489 115.05 69.8119Z" fill="#2EB67D"/>
<path fill-rule="evenodd" clip-rule="evenodd" d="M103.412 143.656C109.844 143.651 115.055 138.431 115.05 131.999C115.055 125.567 109.844 120.347 103.412 120.342H91.7744V131.999C91.7697 138.427 96.98 143.646 103.412 143.656ZM103.412 112.56H134.442C140.874 112.555 146.084 107.335 146.079 100.903C146.089 94.4711 140.878 89.2512 134.446 89.2417H103.417C96.9848 89.2465 91.7744 94.4663 91.7792 100.899C91.7744 107.335 96.98 112.555 103.412 112.56V112.56Z" fill="#ECB22E"/>
<path fill-rule="evenodd" clip-rule="evenodd" d="M29.7217 100.903C29.7169 107.335 34.9273 112.555 41.3595 112.56C47.7916 112.555 53.002 107.335 52.9973 100.903V89.2463H41.3595C34.9273 89.2511 29.7169 94.471 29.7217 100.903ZM60.751 100.903V131.994C60.7415 138.426 65.9519 143.646 72.3841 143.656C78.8163 143.651 84.0266 138.431 84.0219 131.999V100.913C84.0314 94.4805 78.821 89.2606 72.3888 89.2511C65.9519 89.2511 60.7463 94.471 60.751 100.903C60.751 100.908 60.751 100.903 60.751 100.903Z" fill="#E01E5A"/>
</svg>
