<svg width="80" height="80" viewBox="0 0 80 80" fill="none" xmlns="http://www.w3.org/2000/svg">
<path d="M41.2323 35.4108C41.1914 38.6346 44.1052 40.4337 46.3003 41.5032C48.5556 42.6007 49.3131 43.3044 49.3045 44.2858C49.2873 45.7879 47.5054 46.4507 45.8376 46.4765C42.9281 46.5217 41.2366 45.691 39.8916 45.0627L38.8435 49.9671C40.1928 50.589 42.6913 51.1314 45.2824 51.155C51.364 51.155 55.3431 48.153 55.3646 43.4981C55.3883 37.5908 47.1934 37.2637 47.2493 34.6232C47.2687 33.8226 48.0327 32.9683 49.7069 32.7509C50.5355 32.6412 52.8231 32.5572 55.4162 33.7516L56.4342 29.0064C55.0396 28.4985 53.247 28.0122 51.0154 28.0122C45.291 28.0122 41.2645 31.0551 41.2323 35.4108ZM66.2151 28.4211C65.1047 28.4211 64.1685 29.0688 63.751 30.0631L55.0633 50.8064H61.1406L62.3501 47.4643H69.7767L70.4783 50.8064H75.8346L71.1604 28.4211H66.2151ZM67.0651 34.4682L68.819 42.874H64.0157L67.0651 34.4682ZM33.8637 28.4211L29.0733 50.8064H34.8644L39.6527 28.4211H33.8637ZM25.2965 28.4211L19.2687 43.6574L16.8305 30.7022C16.5443 29.256 15.4144 28.4211 14.1598 28.4211H4.3057L4.16797 29.071C6.19087 29.51 8.48923 30.218 9.88159 30.9755C10.7338 31.4382 10.977 31.8428 11.2567 32.9425L15.875 50.8064H21.9953L31.3781 28.4211H25.2965Z" fill="url(#paint0_linear)"/>
<defs>
<linearGradient id="paint0_linear" x1="37.1161" y1="51.6193" x2="37.786" y2="27.8512" gradientUnits="userSpaceOnUse">
<stop stop-color="#222357"/>
<stop offset="1" stop-color="#254AA5"/>
</linearGradient>
</defs>
</svg>
