<svg width="176" height="176" viewBox="0 0 176 176" fill="none" xmlns="http://www.w3.org/2000/svg">
<g clip-path="url(#clip0)">
<mask id="mask0" mask-type="alpha" maskUnits="userSpaceOnUse" x="19" y="18" width="138" height="139">
<path d="M87.5001 156C125.332 156 156 125.332 156 87.5C156 49.6684 125.332 18.9999 87.5001 18.9999C49.6685 18.9999 19 49.6684 19 87.5C19 125.332 49.6685 156 87.5001 156Z" fill="white"/>
</mask>
<g mask="url(#mask0)">
<path d="M15.6426 15.642H159.358V159.358H15.6426V15.642Z" fill="#E5E5E4"/>
</g>
<mask id="mask1" mask-type="alpha" maskUnits="userSpaceOnUse" x="20" y="20" width="135" height="135">
<path d="M87.5007 154.657C124.59 154.657 154.658 124.59 154.658 87.4999C154.658 50.4101 124.59 20.3429 87.5007 20.3429C50.411 20.3429 20.3438 50.4101 20.3438 87.4999C20.3438 124.59 50.411 154.657 87.5007 154.657Z" fill="white"/>
</mask>
<g mask="url(#mask1)">
<path d="M16.9863 16.9851H158.016V158.015H16.9863V16.9851Z" fill="white"/>
</g>
<mask id="mask2" mask-type="alpha" maskUnits="userSpaceOnUse" x="25" y="25" width="125" height="125">
<path d="M87.5002 149.284C121.623 149.284 149.285 121.622 149.285 87.4998C149.285 53.3772 121.623 25.7153 87.5002 25.7153C53.3776 25.7153 25.7158 53.3772 25.7158 87.4998C25.7158 121.622 53.3776 149.284 87.5002 149.284Z" fill="white"/>
</mask>
<g mask="url(#mask2)">
<path d="M22.3584 22.3575H152.643V152.642H22.3584V22.3575Z" fill="#4A8CFF"/>
</g>
<mask id="mask3" mask-type="alpha" maskUnits="userSpaceOnUse" x="47" y="65" width="80" height="44">
<path d="M106.304 79.4812L123.765 66.7214C125.289 65.479 126.451 65.7678 126.451 68.0646V106.975C126.451 109.554 125.001 109.259 123.765 108.318L106.304 95.5586V79.4812ZM47.2061 68.1586V97.1704C47.2394 103.729 52.5813 109.02 59.1398 108.99H101.449C102.64 108.994 103.611 108.033 103.618 106.841V77.8292C103.585 71.2706 98.2427 65.9798 91.6841 66.0096H49.3752C48.1835 66.0058 47.2135 66.9669 47.2061 68.1586H47.2061Z" fill="white"/>
</mask>
<g mask="url(#mask3)">
<path d="M43.8486 62.6516H129.81V112.348H43.8486V62.6516Z" fill="white"/>
</g>
</g>
<defs>
<clipPath id="clip0">
<rect width="137" height="137" fill="white" transform="translate(19 19)"/>
</clipPath>
</defs>
</svg>
